<?xml version="1.0" encoding="UTF-8"?>
<!DOCTYPE svg PUBLIC "-//W3C//DTD SVG 1.1//EN" "http://www.w3.org/Graphics/SVG/1.1/DTD/svg11.dtd">
<!-- Creator: CorelDRAW 2018 (64-Bit) -->
<svg xmlns="http://www.w3.org/2000/svg" xml:space="preserve" width="8.26772in" height="11.6929in" version="1.1" style="shape-rendering:geometricPrecision; text-rendering:geometricPrecision; image-rendering:optimizeQuality; fill-rule:evenodd; clip-rule:evenodd"
viewBox="0 0 8267.72 11692.91"
 xmlns:xlink="http://www.w3.org/1999/xlink">
 <defs>
  <style type="text/css">
   <![CDATA[
    .fil0 {fill:#E31E24;fill-rule:nonzero}
   ]]>
  </style>
 </defs>
 <g id="Layer_x0020_1">
  <metadata id="CorelCorpID_0Corel-Layer"/>
  <path class="fil0" d="M2564.86 6877.82l0 -327.63 402.74 0c18.18,0 35.26,4.13 51.3,12.37 16.03,8.25 29.92,19.63 41.77,34.16 11.85,14.52 21.2,31.48 28.11,50.94 6.91,19.4 10.4,40.55 10.4,63.32 0,22.77 -3.48,44.21 -10.4,64.31 -6.91,20.1 -16.26,37.76 -28.11,52.92 -11.85,15.16 -25.73,27.24 -41.77,36.19 -16.03,8.94 -33.11,13.42 -51.3,13.42l-229.17 0 53.5 -72.38 76.97 0c20.74,0 38.63,-8.37 53.73,-25.15 15.1,-16.73 22.65,-38.11 22.65,-63.96 0,-25.91 -7.38,-47.46 -22.07,-64.65 -14.76,-17.19 -32.47,-25.79 -53.21,-25.79l-138.08 0 0 251.94 -167.01 0 -0.05 0zm636.38 -226.44l157.72 0 0 103.17 -157.72 0 0 -103.17zm710.57 -25.44l-118.44 0 0 251.94 -168.06 0 0 -251.94 -185.54 0 57.86 -75.69 470.42 0 -56.23 75.69 -0 0zm308.93 124.6l219.93 0 45.31 -64.31 -213.37 0 -51.81 64.31 -0.06 0zm344.88 -200.35l-403.26 0c-18.53,0 -36.02,4.24 -52.4,12.72 -16.38,8.48 -30.67,19.98 -42.81,34.5 -12.2,14.52 -21.84,31.72 -28.93,51.58 -7.09,19.87 -10.63,41.19 -10.63,63.96 0,22.77 3.54,44.21 10.63,64.31 7.09,20.1 16.73,37.53 28.93,52.28 12.2,14.76 26.49,26.49 42.81,35.2 16.38,8.71 33.81,13.07 52.4,13.07l350.34 0 53.5 -72.38 -287.02 0c-10.57,0 -20.39,-2.32 -29.45,-7.03 -9.12,-4.7 -17.02,-11.15 -23.76,-19.4 -6.74,-8.25 -12.08,-18.01 -16.09,-29.16 -4.01,-11.15 -5.98,-23 -5.98,-35.49 0,-25.44 7.38,-46.59 22.07,-63.32 14.76,-16.73 32.47,-25.15 53.21,-25.15l233 0 53.5 -75.69 -0.06 0zm110.84 0l158.24 0 217.2 198.96 0 -198.96 168.06 0 0 327.63 -160.97 0 -219.35 -205 0 205 -163.18 0 0 -327.63zm1125.33 75.69l-118.44 0 0 251.94 -168.06 0 0 -251.94 -185.54 0 57.86 -75.69 470.42 0 -56.23 75.69 -0 0z"/>
 </g>
</svg>
